<svg height="64" viewBox="0 0 128 128" width="64" xmlns="http://www.w3.org/2000/svg" xmlns:xlink="http://www.w3.org/1999/xlink"><linearGradient id="a" gradientUnits="userSpaceOnUse" x1="0" x2="128" y1="128" y2="0"><stop offset="0" stop-color="#333"/><stop offset="1" stop-color="#5d5d5d"/></linearGradient><path fill="#ffffff" d="m28.5 11.254349c-2.901875.293591-5.125 2.765184-5.125 5.75v94.000001c0 3.1838 2.53494 5.75 5.71875 5.75h69.8125c3.1838 0 5.71875-2.5662 5.71875-5.75v-70.625001h-21.03125c-4.30611 0-8.0625-3.141109-8.0625-7.3125v-21.8125h-46.4375c-.198988 0-.400292-.01957-.59375 0zm51.03125 0v21.8125c0 1.714122 1.63197 3.3125 4.0625 3.3125h21.03125zm-25.25 34.40625c10.87629 0 19.8125 8.90496 19.8125 19.78125 0 4.06074-1.25131 7.819442-3.375 10.96875l3.90625 3.9375c1.67796-.904047 3.82975-.670255 5.25.75l12.3125 12.3125c1.73568 1.735681 1.73568 4.54557 0 6.281249l-3.15625 3.125002c-1.73569 1.73568-4.51432 1.73568-6.25 0l-12.3125-12.312501c-1.42025-1.420255-1.68529-3.540787-.78125-5.21875l-3.84375-3.84375c-3.26003 2.360716-7.25601 3.78125-11.5625 3.78125-10.87628 0-19.75-8.904959-19.75-19.78125 0-10.87629 8.87372-19.78125 19.75-19.78125zm0 7.71875c-6.6901 0-12 5.372396-12 12.0625 0 6.690105 5.3099 12.03125 12 12.03125 6.69011 0 12.0625-5.341145 12.0625-12.03125 0-6.690104-5.37239-12.0625-12.0625-12.0625z"/></svg>